<svg width="50" height="50" viewBox="0 0 50 50" fill="none" xmlns="http://www.w3.org/2000/svg">
<path d="M28.9031 24.4698L23.3689 21.8875C22.886 21.6633 22.4893 21.9146 22.4893 22.4493V27.3133C22.4893 27.8479 22.886 28.0993 23.3689 27.8751L28.9006 25.2928C29.3861 25.0661 29.3861 24.6965 28.9031 24.4698ZM24.9533 1.22681C11.8891 1.22681 1.29883 11.8171 1.29883 24.8813C1.29883 37.9455 11.8891 48.5358 24.9533 48.5358C38.0175 48.5358 48.6078 37.9455 48.6078 24.8813C48.6078 11.8171 38.0175 1.22681 24.9533 1.22681ZM24.9533 34.4909C12.8452 34.4909 12.6333 33.3994 12.6333 24.8813C12.6333 16.3632 12.8452 15.2717 24.9533 15.2717C37.0614 15.2717 37.2733 16.3632 37.2733 24.8813C37.2733 33.3994 37.0614 34.4909 24.9533 34.4909Z" fill="white"/>
</svg>
