<svg width="50" height="50" viewBox="0 0 50 50" fill="none" xmlns="http://www.w3.org/2000/svg">
<g clip-path="url(#clip0_24_2528)">
<path fill-rule="evenodd" clip-rule="evenodd" d="M49.7296 24.8813C49.7296 38.4888 38.697 49.5214 25.0895 49.5214C11.4821 49.5214 0.449463 38.4888 0.449463 24.8813C0.449463 11.2738 11.4821 0.241211 25.0895 0.241211C38.697 0.241211 49.7296 11.2738 49.7296 24.8813ZM25.9725 18.4317C23.5762 19.4276 18.7858 21.4912 11.6032 24.6205C10.4369 25.0846 9.82501 25.5384 9.76957 25.9819C9.67512 26.7334 10.6155 27.0291 11.8927 27.4295C12.0673 27.4849 12.248 27.5404 12.4328 27.602C13.6915 28.0106 15.3834 28.489 16.2622 28.5075C17.061 28.5239 17.9521 28.1954 18.9357 27.5219C25.646 22.9902 29.11 20.7007 29.3276 20.6514C29.4816 20.6165 29.6952 20.5713 29.8389 20.7007C29.9827 20.828 29.9683 21.0703 29.9539 21.136C29.8595 21.5323 26.1758 24.9593 24.2662 26.7334C23.6707 27.2858 23.2498 27.6779 23.1635 27.7683C22.9705 27.9675 22.7734 28.1584 22.5845 28.3412C21.4141 29.4664 20.5393 30.3124 22.6337 31.6922C23.6399 32.3554 24.4448 32.9037 25.2476 33.4499C26.1244 34.0474 26.9991 34.6429 28.1326 35.3862C28.4201 35.5751 28.6952 35.7702 28.9642 35.9611C29.9847 36.69 30.9025 37.343 32.036 37.2403C32.6931 37.1787 33.3748 36.5607 33.7197 34.7147C34.5349 30.3493 36.1406 20.8958 36.5123 16.9985C36.5349 16.6749 36.5211 16.3498 36.4712 16.0293C36.4413 15.7705 36.3153 15.5323 36.118 15.362C35.8244 15.1218 35.3686 15.0704 35.1632 15.0745C34.2372 15.091 32.8163 15.5858 25.9725 18.4317Z" fill="white"/>
</g>
<defs>
<clipPath id="clip0_24_2528">
<rect width="49.2802" height="49.2802" fill="white" transform="translate(0.449463 0.241211)"/>
</clipPath>
</defs>
</svg>
