<svg width="50" height="50" viewBox="0 0 50 50" fill="none" xmlns="http://www.w3.org/2000/svg">
<path d="M25.2258 1.22681C12.1616 1.22681 1.57129 11.8171 1.57129 24.8813C1.57129 37.9455 12.1616 48.5358 25.2258 48.5358C38.2899 48.5358 48.8802 37.9455 48.8802 24.8813C48.8802 11.8171 38.2899 1.22681 25.2258 1.22681ZM34.3229 27.9145C34.3229 27.9145 36.4148 29.9793 36.9298 30.9378C36.9446 30.9575 36.952 30.9772 36.9569 30.9871C37.1663 31.3394 37.2156 31.613 37.1121 31.8175C36.9397 32.1575 36.3483 32.3251 36.1462 32.3398H32.4502C32.194 32.3398 31.6568 32.2733 31.0063 31.8249C30.5061 31.475 30.0133 30.9009 29.5329 30.3415C28.8158 29.5087 28.1949 28.7892 27.569 28.7892C27.4895 28.7891 27.4105 28.8015 27.335 28.8262C26.8619 28.9789 26.2557 29.6541 26.2557 31.4528C26.2557 32.0146 25.8122 32.3374 25.4993 32.3374H23.8065C23.2299 32.3374 20.2263 32.1353 17.5652 29.3288C14.3077 25.8915 11.3756 18.9972 11.3509 18.9332C11.1661 18.4872 11.5481 18.2482 11.9645 18.2482H15.6974C16.1952 18.2482 16.3578 18.5512 16.4711 18.8198C16.6042 19.1328 17.0921 20.3771 17.8929 21.7766C19.1914 24.0583 19.9873 24.9848 20.6255 24.9848C20.7451 24.9834 20.8627 24.9529 20.968 24.8961C21.8008 24.4328 21.6456 21.4637 21.6086 20.8477C21.6086 20.7319 21.6061 19.5196 21.1799 18.9381C20.8743 18.5167 20.3544 18.3566 20.039 18.2975C20.1667 18.1213 20.3349 17.9785 20.5294 17.881C21.101 17.5952 22.131 17.5533 23.1535 17.5533H23.7227C24.8315 17.5681 25.1173 17.6396 25.519 17.7406C26.3321 17.9352 26.3494 18.4601 26.2779 20.2563C26.2557 20.7664 26.2335 21.343 26.2335 22.023C26.2335 22.1709 26.2262 22.3286 26.2262 22.4961C26.2015 23.4103 26.1719 24.4476 26.8175 24.8739C26.9017 24.9267 26.999 24.9549 27.0984 24.9552C27.3226 24.9552 27.9978 24.9552 29.8261 21.8185C30.3899 20.8089 30.8799 19.7598 31.2922 18.6794C31.3291 18.6153 31.4375 18.4182 31.5657 18.3418C31.6602 18.2936 31.7651 18.2691 31.8712 18.2703H36.2596C36.7376 18.2703 37.0653 18.3418 37.1269 18.5266C37.2353 18.8198 37.1072 19.7143 35.104 22.4271L34.2095 23.6074C32.3936 25.9876 32.3936 26.1084 34.3229 27.9145Z" fill="white"/>
</svg>
